<?xml version="1.0" standalone="no"?>
<!DOCTYPE svg PUBLIC "-//W3C//DTD SVG 20010904//EN"
 "http://www.w3.org/TR/2001/REC-SVG-20010904/DTD/svg10.dtd">
<svg version="1.0" xmlns="http://www.w3.org/2000/svg"
 width="2085.000000pt" height="2085.000000pt" viewBox="0 0 2085.000000 2085.000000"
 preserveAspectRatio="xMidYMid meet">
<metadata>
Created by potrace 1.14, written by Peter Selinger 2001-2017
</metadata>
<g transform="translate(0.000000,2085.000000) scale(0.100000,-0.100000)"
fill="#000000" stroke="none">
<path d="M10058 20495 c-2 -2 -66 -6 -143 -10 -77 -3 -165 -8 -195 -10 -30 -3
-82 -7 -115 -10 -33 -3 -91 -7 -130 -10 -38 -3 -81 -8 -95 -10 -14 -2 -52 -7
-85 -10 -33 -3 -71 -8 -85 -10 -14 -2 -50 -7 -80 -10 -58 -7 -81 -10 -145 -20
-22 -3 -53 -7 -70 -9 -30 -4 -78 -12 -125 -21 -14 -3 -41 -7 -60 -10 -19 -3
-73 -13 -120 -21 -47 -9 -96 -18 -110 -21 -14 -2 -79 -16 -145 -30 -66 -14
-131 -27 -145 -30 -35 -6 -322 -78 -455 -114 -375 -101 -950 -301 -1250 -434
-16 -7 -68 -30 -114 -50 -408 -176 -896 -432 -1286 -675 -87 -54 -384 -250
-485 -321 -182 -126 -646 -485 -710 -549 -3 -3 -34 -30 -70 -60 -36 -30 -85
-73 -110 -96 -25 -22 -76 -69 -115 -104 -393 -358 -823 -820 -1134 -1219 -709
-911 -1214 -1832 -1598 -2911 -130 -367 -290 -945 -357 -1290 -2 -14 -14 -72
-25 -130 -12 -58 -24 -121 -27 -140 -3 -19 -11 -71 -19 -115 -8 -44 -22 -132
-30 -195 -9 -63 -18 -126 -20 -140 -5 -30 -23 -186 -30 -250 -2 -25 -7 -74
-10 -110 -4 -36 -8 -78 -10 -95 -2 -16 -6 -77 -10 -135 -4 -58 -8 -124 -10
-148 -14 -148 -26 -1035 -15 -1052 3 -4 654 -7 1447 -7 l1443 0 1 41 c0 56 0
813 0 854 l-1 32 -976 0 -976 0 7 113 c4 61 8 128 10 147 11 140 16 200 20
230 2 19 7 60 10 90 13 119 17 152 46 345 17 110 44 268 60 350 17 83 33 164
35 180 3 17 12 57 20 90 8 33 17 68 19 78 240 1042 687 2082 1277 2970 460
694 1019 1336 1608 1847 52 45 109 94 125 109 17 15 53 45 80 66 28 22 52 42
55 45 3 3 48 40 100 81 840 668 1811 1193 2830 1529 248 81 691 205 810 227
14 2 41 8 60 13 19 5 46 11 60 14 14 2 60 11 102 20 42 9 94 19 115 22 21 3
40 7 43 9 3 2 50 11 105 20 55 10 109 19 119 21 11 2 56 8 100 14 45 6 92 13
106 15 14 2 48 7 75 10 28 3 66 8 85 10 60 8 113 14 173 19 31 3 81 8 110 11
28 3 81 7 117 10 36 2 103 7 150 10 214 14 675 20 890 10 219 -9 352 -18 483
-30 31 -3 83 -7 115 -10 47 -4 242 -28 412 -51 88 -12 351 -58 481 -85 52 -11
104 -21 115 -23 62 -13 263 -60 344 -82 52 -13 105 -27 117 -29 69 -15 459
-136 623 -194 185 -64 481 -179 582 -225 18 -8 105 -47 193 -86 167 -75 505
-244 629 -313 302 -171 578 -343 841 -525 92 -64 410 -302 440 -329 11 -10 40
-34 65 -53 93 -72 244 -202 470 -404 76 -69 460 -456 551 -556 437 -480 880
-1087 1174 -1605 137 -242 328 -614 418 -816 38 -84 92 -210 123 -289 19 -47
39 -94 44 -105 44 -92 208 -573 274 -805 20 -69 40 -138 46 -155 18 -60 95
-378 116 -480 2 -11 11 -56 20 -100 8 -44 20 -98 25 -120 5 -22 16 -83 24
-135 8 -52 17 -104 20 -115 4 -20 12 -20 467 -18 255 0 466 1 469 2 3 1 0 34
-6 74 -7 39 -16 95 -19 122 -4 28 -9 57 -11 65 -2 8 -7 31 -10 50 -3 19 -10
58 -15 85 -13 66 -19 93 -26 135 -18 98 -44 218 -61 285 -8 33 -17 71 -19 85
-3 14 -7 33 -10 42 -3 9 -7 25 -9 37 -2 11 -13 54 -25 96 -12 42 -23 85 -25
96 -18 90 -182 615 -265 844 -184 511 -488 1157 -759 1615 -31 52 -60 103 -66
112 -80 138 -369 582 -435 668 -15 19 -60 80 -100 135 -148 202 -396 511 -532
663 -28 32 -83 93 -122 137 -96 108 -557 570 -681 682 -263 239 -487 423 -776
639 -153 115 -520 371 -587 409 -9 6 -28 17 -42 26 -41 27 -242 150 -280 171
-19 11 -84 48 -145 83 -172 99 -283 158 -510 269 -280 138 -347 168 -702 317
-13 5 -33 13 -45 19 -171 73 -871 309 -995 335 -10 2 -61 15 -113 30 -52 14
-102 28 -110 30 -8 2 -73 17 -143 34 -125 31 -281 66 -362 81 -22 4 -105 19
-185 34 -80 14 -155 28 -167 30 -11 3 -43 8 -70 12 -26 3 -57 8 -68 10 -11 2
-40 6 -65 9 -25 3 -63 9 -85 12 -55 9 -61 9 -135 17 -36 4 -76 9 -90 11 -27 5
-101 12 -195 20 -33 3 -85 7 -115 10 -55 5 -126 10 -295 21 -95 7 -921 14
-927 9z"/>
<path d="M10468 18526 c-1 -2 -115 -6 -253 -10 -137 -3 -268 -8 -290 -10 -22
-3 -78 -7 -125 -11 -47 -3 -98 -8 -115 -10 -16 -2 -59 -6 -95 -10 -36 -3 -78
-8 -95 -10 -16 -2 -84 -11 -150 -20 -66 -9 -133 -18 -150 -21 -16 -3 -39 -7
-50 -9 -63 -9 -166 -27 -203 -36 -23 -5 -59 -12 -80 -15 -103 -16 -471 -106
-657 -160 -304 -88 -723 -238 -940 -334 -203 -90 -275 -125 -445 -209 -239
-120 -487 -258 -650 -362 -591 -378 -1007 -709 -1474 -1174 -114 -113 -172
-176 -365 -390 -20 -22 -70 -80 -111 -130 -41 -49 -77 -92 -80 -95 -11 -10
-150 -189 -225 -290 -168 -224 -433 -635 -569 -883 -357 -645 -613 -1295 -785
-1987 -28 -113 -52 -216 -55 -230 -3 -14 -14 -70 -26 -125 -30 -146 -32 -158
-21 -164 10 -7 929 -7 934 0 2 2 18 69 36 149 17 80 34 152 36 161 43 189 207
700 271 846 8 17 14 34 14 38 0 4 34 87 76 184 260 602 570 1123 970 1631 68
85 133 167 146 181 13 15 34 40 48 56 14 17 57 65 95 108 39 42 81 89 94 104
103 114 345 350 516 502 27 24 59 52 70 63 22 20 291 237 340 274 810 612
1717 1039 2700 1273 72 17 141 33 155 35 14 3 32 7 40 9 8 2 31 7 50 10 19 3
42 8 50 10 8 2 29 6 45 9 17 3 73 12 124 21 52 8 113 18 135 21 23 2 52 7 66
9 14 2 48 7 75 10 28 3 61 8 75 10 31 5 113 13 210 20 41 4 91 8 110 10 213
22 839 22 1060 0 19 -2 69 -6 110 -10 41 -3 93 -8 115 -10 122 -14 213 -26
235 -30 14 -2 45 -7 70 -9 25 -3 55 -7 66 -10 12 -2 39 -7 60 -11 22 -3 53 -8
69 -10 25 -5 255 -50 305 -60 248 -53 807 -219 975 -290 17 -7 84 -34 150 -60
136 -53 139 -54 295 -125 196 -89 387 -187 603 -309 180 -101 476 -294 673
-437 66 -48 121 -90 124 -93 3 -3 23 -19 45 -36 51 -37 302 -246 375 -311 511
-457 981 -1015 1332 -1585 76 -122 216 -365 245 -424 11 -22 45 -89 75 -150
56 -111 148 -304 148 -311 0 -2 13 -32 29 -66 121 -266 309 -820 371 -1093 7
-27 13 -57 15 -65 2 -8 15 -64 29 -123 13 -60 27 -112 31 -115 6 -7 912 -10
932 -4 7 2 11 8 8 12 -3 4 -7 25 -11 46 -21 135 -143 652 -181 764 -8 25 -16
52 -18 61 -6 29 -106 332 -142 429 -86 234 -147 383 -251 615 -95 214 -283
571 -420 800 -135 227 -387 598 -519 765 -120 153 -173 219 -228 284 -33 39
-62 73 -65 76 -3 3 -32 36 -65 75 -129 149 -442 470 -596 610 -512 467 -1035
843 -1614 1160 -717 392 -1484 673 -2280 834 -184 37 -480 86 -580 97 -11 1
-42 4 -70 8 -106 13 -208 23 -330 32 -44 3 -93 7 -110 10 -16 2 -138 6 -270
10 -132 3 -245 7 -252 9 -6 2 -13 2 -15 1z"/>
<path d="M10110 16330 c-3 -2039 0 -12074 4 -12077 7 -7 697 -5 704 2 8 8 10
12233 2 12243 -3 4 -164 7 -357 7 l-353 0 0 -175z"/>
<path d="M7939 15315 c-1 0 -2 -2222 -3 -4937 l-1 -4938 357 0 358 0 0 4935
c0 2714 -3 4935 -7 4936 -6 0 -696 5 -704 4z"/>
<path d="M11199 15315 c-1 0 -3 -2222 -3 -4937 l-2 -4938 358 0 358 0 0 53 c4
608 -1 9811 -5 9815 -5 5 -187 7 -706 7z"/>
<path d="M9030 14240 c-5 -3 -9 -1743 -9 -3868 l0 -3862 359 0 359 0 -2 3867
-2 3866 -348 1 c-192 1 -353 -1 -357 -4z"/>
<path d="M12338 13692 l-56 -3 1 -3312 2 -3312 357 -1 357 -2 0 3314 0 3314
-62 0 c-34 1 -170 2 -302 3 -132 1 -265 1 -297 -1z"/>
<path d="M6859 13099 c-6 -3 -10 -1041 -10 -2715 1 -1490 1 -2715 1 -2721 0
-10 78 -13 358 -13 l357 0 0 2725 c0 2416 -2 2725 -15 2726 -65 4 -684 3 -691
-2z"/>
<path d="M13370 10377 l0 -1933 358 1 357 0 0 1933 1 1932 -358 0 -358 0 0
-1933z"/>
<path d="M5770 11830 c-5 -3 -9 -637 -9 -1458 l0 -1452 358 0 359 0 -2 1458
-1 1457 -348 0 c-192 0 -352 -2 -357 -5z"/>
<path d="M14461 11650 c-4 -3 -7 -576 -6 -1275 l0 -1270 358 -3 c335 -2 357
-1 357 15 1 27 1 2505 1 2523 -1 13 -47 15 -352 15 -193 0 -354 -2 -358 -5z"/>
<path d="M15542 10378 l0 -828 359 0 359 0 -2 827 -3 827 -356 1 -357 0 0
-827z"/>
<path d="M4674 10378 l1 -803 358 0 357 0 0 802 0 803 -358 0 -358 0 0 -802z"/>
<path d="M3590 10377 l0 -543 360 0 360 0 0 543 0 543 -360 0 -360 0 0 -543z"/>
<path d="M16629 10918 c-1 -2 -2 -245 -3 -541 -1 -351 2 -537 9 -538 49 -7
698 -3 702 4 4 7 8 996 4 1065 -1 9 -79 12 -356 12 -195 0 -356 -1 -356 -2z"/>
<path d="M17700 10833 c-1 -12 -1 -897 -1 -909 1 -8 267 -11 959 -12 526 0
965 -1 976 -1 17 -1 18 -8 11 -113 -3 -62 -8 -129 -10 -148 -2 -19 -6 -71 -9
-116 -4 -45 -8 -90 -10 -100 -2 -10 -7 -53 -11 -94 -3 -41 -8 -87 -11 -101 -2
-14 -6 -41 -8 -60 -3 -19 -8 -56 -11 -84 -7 -52 -70 -429 -79 -477 -4 -16 -8
-38 -10 -50 -15 -81 -83 -378 -117 -506 -333 -1279 -938 -2470 -1773 -3492
-61 -74 -122 -148 -137 -165 -224 -254 -304 -341 -479 -515 -174 -175 -251
-248 -415 -395 -47 -43 -93 -82 -150 -129 -33 -27 -64 -54 -70 -60 -9 -11
-157 -127 -305 -242 -146 -114 -648 -464 -664 -464 -2 0 -47 -27 -99 -60 -254
-160 -663 -379 -960 -514 -239 -109 -345 -154 -617 -259 -158 -61 -454 -159
-665 -221 -104 -30 -482 -129 -540 -140 -361 -74 -379 -77 -467 -91 -18 -3
-44 -8 -58 -10 -14 -3 -43 -8 -65 -10 -22 -3 -67 -10 -100 -15 -33 -5 -80 -12
-105 -15 -25 -3 -56 -8 -70 -10 -23 -3 -49 -6 -177 -20 -27 -3 -66 -7 -88 -10
-38 -4 -163 -14 -250 -20 -346 -25 -1049 -25 -1305 0 -19 2 -71 6 -115 10 -44
3 -96 8 -115 10 -19 2 -62 7 -95 10 -33 3 -73 8 -90 10 -16 2 -57 6 -90 10
-33 3 -67 8 -75 10 -8 2 -51 9 -95 14 -44 6 -91 13 -105 15 -14 3 -68 12 -120
20 -291 48 -616 121 -950 216 -80 22 -167 47 -195 55 -140 39 -538 182 -750
268 -276 112 -674 299 -900 422 -122 66 -405 229 -460 265 -13 8 -57 35 -97
60 -40 25 -77 48 -83 53 -5 4 -84 58 -175 119 -138 93 -503 358 -520 377 -3 3
-27 24 -55 46 -27 21 -52 42 -55 45 -3 3 -21 17 -40 32 -19 14 -44 34 -55 44
-11 11 -65 57 -120 104 -368 313 -756 712 -1123 1155 -292 352 -681 925 -897
1320 -250 456 -413 809 -578 1245 -56 148 -177 504 -202 595 -8 28 -32 115
-55 195 -22 80 -42 154 -44 165 -2 11 -12 49 -21 85 -9 36 -19 76 -22 90 -2
14 -15 70 -28 125 -21 92 -51 234 -61 295 -3 14 -12 72 -22 130 l-18 105 -469
0 c-308 0 -469 -3 -468 -10 1 -5 4 -30 8 -55 12 -88 15 -107 36 -225 46 -266
98 -502 204 -925 2 -8 18 -62 35 -120 17 -58 33 -114 36 -126 2 -12 11 -41 20
-65 8 -24 17 -51 19 -59 7 -31 109 -330 157 -460 88 -238 186 -477 272 -663
20 -43 36 -81 36 -83 0 -14 260 -523 345 -674 218 -390 394 -664 710 -1103
116 -161 438 -556 580 -712 17 -18 62 -68 100 -111 77 -86 449 -460 560 -564
70 -66 208 -190 255 -230 14 -12 36 -31 50 -43 46 -39 205 -172 245 -204 113
-89 165 -130 195 -153 19 -14 45 -34 59 -46 144 -116 838 -584 867 -584 3 0
20 -11 38 -25 18 -14 36 -25 40 -25 3 0 23 -11 44 -23 20 -13 96 -56 167 -96
72 -39 141 -78 155 -86 14 -9 126 -66 250 -128 283 -143 604 -286 840 -377
604 -232 1104 -378 1710 -500 165 -33 251 -48 480 -85 218 -34 571 -72 845
-90 365 -24 1113 -24 1315 -1 19 3 78 7 130 11 52 3 109 8 125 9 17 2 66 7
110 11 44 4 87 8 95 10 8 1 44 6 80 10 36 3 76 8 90 10 14 2 49 7 79 10 30 4
61 8 70 10 9 1 39 6 66 9 99 13 482 81 570 101 11 2 70 15 130 29 61 13 142
32 180 41 39 9 77 18 85 20 204 46 746 213 1035 320 668 246 1324 571 1925
953 243 155 630 425 710 495 14 12 41 33 60 47 41 29 207 162 340 274 86 72
174 149 315 276 62 56 532 525 601 600 92 100 275 311 340 390 16 19 31 37 34
40 7 7 215 270 266 337 152 201 327 455 519 758 188 296 531 941 643 1210 16
39 62 147 101 240 253 598 498 1416 597 1990 8 47 13 78 18 100 5 27 37 215
41 240 23 169 46 342 51 389 3 33 7 68 9 78 2 10 7 57 10 106 4 48 9 95 11
105 2 11 6 65 9 120 4 56 8 125 10 152 7 104 17 520 19 788 l1 277 -1447 0
c-797 0 -1448 -3 -1448 -7z"/>
<path d="M2450 8916 c0 -6 16 -87 35 -181 197 -950 547 -1829 1053 -2643 43
-68 82 -131 87 -140 24 -41 165 -247 238 -347 307 -422 602 -757 1047 -1185
92 -89 397 -349 540 -461 292 -228 704 -506 950 -641 23 -13 49 -28 58 -33
127 -75 463 -246 647 -330 332 -150 757 -307 1085 -400 180 -51 241 -67 256
-71 7 -1 58 -14 115 -28 118 -29 134 -33 350 -75 152 -29 313 -57 388 -66 20
-2 52 -7 71 -10 19 -2 55 -7 80 -10 25 -3 56 -8 70 -10 14 -2 57 -7 95 -10 39
-3 88 -8 110 -11 46 -5 135 -11 325 -21 253 -14 858 -7 1035 11 22 3 78 8 125
11 47 4 96 8 110 10 14 2 52 7 85 10 33 4 71 8 85 10 14 2 77 11 140 20 146
19 373 59 517 90 61 14 122 26 135 29 48 9 318 79 433 112 323 94 775 256 995
357 30 14 93 42 140 63 196 85 534 263 780 409 486 288 964 646 1384 1037 206
191 452 446 616 639 30 35 60 70 67 77 7 7 29 34 50 60 21 26 41 49 44 52 14
13 195 250 276 361 125 173 316 461 393 594 267 459 451 836 605 1242 31 81
61 157 66 168 41 94 211 654 244 805 2 8 13 56 25 105 12 50 25 110 30 135 5
25 16 77 25 115 8 39 18 91 21 116 l6 46 -471 0 -470 0 -21 -96 c-34 -152 -87
-358 -115 -451 -15 -47 -28 -92 -30 -100 -17 -71 -116 -358 -178 -516 -128
-329 -291 -668 -494 -1024 -173 -304 -453 -699 -727 -1025 -150 -179 -478
-518 -666 -690 -424 -386 -939 -746 -1475 -1032 -100 -54 -127 -67 -330 -163
-242 -114 -599 -253 -845 -330 -74 -23 -155 -48 -180 -55 -58 -18 -238 -66
-270 -72 -14 -2 -47 -10 -75 -18 -27 -8 -61 -16 -75 -19 -14 -3 -56 -12 -95
-20 -38 -8 -83 -17 -100 -20 -16 -3 -55 -10 -85 -16 -56 -12 -61 -12 -140 -24
-25 -4 -70 -11 -100 -16 -53 -8 -116 -17 -190 -26 -19 -2 -53 -6 -75 -9 -242
-29 -460 -40 -820 -40 -292 1 -428 5 -585 20 -197 18 -267 26 -370 40 -178 24
-306 45 -420 69 -41 8 -91 18 -110 21 -19 3 -43 8 -52 11 -9 3 -27 7 -40 9
-112 22 -476 122 -665 184 -588 193 -1197 488 -1721 833 -97 64 -380 264 -392
278 -3 3 -22 18 -44 34 -324 242 -803 699 -1078 1027 -34 42 -84 100 -109 130
-78 91 -297 386 -392 529 -79 117 -307 485 -307 495 0 2 -16 32 -36 67 -20 34
-71 133 -114 218 -76 151 -109 221 -172 365 -17 39 -38 86 -46 105 -40 91
-101 255 -172 465 -98 290 -117 355 -175 595 -25 107 -51 211 -56 231 l-9 36
-470 0 c-328 0 -470 -4 -470 -11z"/>
</g>
</svg>
